<svg id="visual" viewBox="0 0 960 540" width="960" height="540" xmlns="http://www.w3.org/2000/svg" xmlns:xlink="http://www.w3.org/1999/xlink" version="1.1"><rect x="0" y="0" width="960" height="540" fill="#001220"></rect><defs><linearGradient id="grad1_0" x1="43.8%" y1="0%" x2="100%" y2="100%"><stop offset="14.444444444444446%" stop-color="#001220" stop-opacity="1"></stop><stop offset="85.55555555555554%" stop-color="#001220" stop-opacity="1"></stop></linearGradient></defs><defs><linearGradient id="grad2_0" x1="0%" y1="0%" x2="56.3%" y2="100%"><stop offset="14.444444444444446%" stop-color="#001220" stop-opacity="1"></stop><stop offset="85.55555555555554%" stop-color="#001220" stop-opacity="1"></stop></linearGradient></defs><g transform="translate(960, 0)"><path d="M0 486C-63.3 465.8 -126.5 445.6 -169.5 409.3C-212.6 373 -235.3 320.5 -285 285C-334.6 249.4 -411 230.7 -449 186C-487 141.3 -486.5 70.6 -486 0L0 0Z" fill="#FBAE3C"></path></g><g transform="translate(0, 540)"><path d="M0 -486C67.1 -482.5 134.2 -479.1 186 -449C237.8 -418.9 274.2 -362.3 314.7 -314.7C355.1 -267.1 399.5 -228.5 428.7 -177.6C457.9 -126.6 471.9 -63.3 486 0L0 0Z" fill="#FBAE3C"></path></g></svg>