<?xml version="1.0" encoding="UTF-8"?>
<svg id="Calque_2" data-name="Calque 2" xmlns="http://www.w3.org/2000/svg" viewBox="0 0 2522.42 551.58">
  <defs>
    <style>
      .cls-1, .cls-2, .cls-3 {
        stroke: #fff;
        stroke-miterlimit: 10;
        stroke-width: 5px;
      }

      .cls-1, .cls-3 {
        fill: #8b44eb;
      }

      .cls-4 {
        letter-spacing: 0em;
      }

      .cls-4, .cls-5, .cls-6, .cls-7 {
        fill: #fff;
      }

      .cls-4, .cls-5, .cls-7 {
        font-size: 148.81px;
      }

      .cls-5 {
        letter-spacing: 0em;
      }

      .cls-8 {
        font-family: deonstudio, deonstudio;
      }

      .cls-2 {
        fill: #000;
      }

      .cls-3 {
        font-size: 297.61px;
      }

      .cls-6 {
        stroke-width: 0px;
      }
    </style>
  </defs>
  <g>
    <path class="cls-1" d="M295.87,346.66c-24.24-13.89-45.19-21.08-59.32-24.97-21.51-5.9-34.79-6.21-42.76-5.93-7.11.25-12.58.88-17.87,2.24-.44.11-.59.44-.21.93.42.55.78.87,1.5,1.58,1.29,1.28,5.07,4.27,6.55,5.33,1.27.91,2.02,1.57,5.59,4.1,3.34,2.36,5.47,3.73,8.67,5.93,4.91,3.38,5.9,3.58,12.98,9.32,3.66,2.97-27.87-16.06-37.73-20.53-14.27-6.47-32.49-14.57-57.35-17.67-3.45-.43-18.17-2.16-36.34.99-10.5,1.82-16.51,4.8-22.25,8.9-3.92,2.8-8.9,7.53-9.14,12.34-.83,16.7,74.41,38.18,147.81,42.29,24.61,1.38,90.09,5.04,98.87-19.03.84-2.3,7.62-2.09.99-5.81Z"/>
    <path class="cls-6" d="M287.88,199.09c-.31-2.38-1.12-5.74-3.34-9.08-4.55-6.85-11.73-8.66-13.53-9.08-3.85-.91-6.98-.57-8.71-.37-2.46.28-5.24.94-12.05,4.08-8.16,3.76-7.04,4.14-10.94,5.56-2.53.93-9.82,3.26-18.35,1.67-.86-.16-3.8-1.16-9.64-3.15-11.59-3.95-11.33-4.05-13.16-4.45-7.55-1.65-13.84-.43-17.98.37-3.06.59-9.01,1.8-15.76,5.75-6.02,3.53-10.05,7.7-12.42,10.57.71.37,1.86.46,3.04.25,1.69-.3,2.2-.94,3.89-1.64,2.08-.86,4.22-.35,6.36.43,1.47.54,2.28,1.22,3.01,1.7,18.41-.37,36.83-.74,55.24-1.11.16-.44.99-.88,1.92-1.37.95-.5,1.48-.76,2.72-.48.77.18,1.9.53,3.15,1.3,5.87.12,11.74.25,17.61.37,1.96-.91,3.37-1.63,4.28-2.3,1.07-.79,1.04-1.09,3.15-.37,1.46.5,1.62,1.58,2.77,2.12,9.58-.25,19.16-.49,28.73-.74Z"/>
    <path class="cls-2" d="M3.3,301.61c3.15,6.24,3.3,6.94,9.36,18.23,6.27,11.67,11,19.87,20.82,31.73,40.71,49.16,45.46,52.65,63.83,63.96,42.61,26.23,120.87,40.78,176.89,16.41,14.83-6.46,44.09-26.42,61.55-63.03,16.43-34.45,2.43-68.31-1.48-78.6,8.9-15.73,12.11-29.57,13.35-39.3,2.32-18.23-2.64-40.53-18.54-82.31-6.6-17.35-12.89-30.09-21.5-39.18-9.15-9.64-15.39-15.98-31.14-17.18-16.25-1.24-20.51,3.37-25.89,6.18-9.12,4.76-13.57,6.28-19.28,6.12-4.39-.12-9.43-.41-14.07-4.89-8.55-8.27-22.02-12.41-25.98-12.54-22.3-.72-43.66,10.89-51.23,16.25-65.74,46.53-87.46,118.29-114.2,146.08-10.94,11.37-15.21,13.67-20.37,19.56-4.25,4.87-2.83,11.12-2.13,12.51ZM17.98,302.94c41.2-20.86,67.18-44.72,83.55-63.28,14.21-16.11,48.7-59.4,77.61-65.75,13.93-3.06,23.23-.99,23.23-.99,11.94,2.66,13.73,8.56,25.21,9.39,9.94.72,18.91-2.96,21.26-3.95,7.17-3.02,7.85-5.33,12.36-6.43,9.62-2.33,19.22,5.11,25.21,9.89,21.41,17.07,32.82,44.41,34.61,65.26.31,3.65.73,11.85.99,18.29.43,10.79.5,19.68.49,25.71,3.84,6.97,8.33,24.43,5.44,32.13-3.89,10.38-18,20.94-46.1,29.79-67.11,21.13-188.66,10.05-257.62-38.03-4.43-3.09-5.54-9.66-6.24-12.02Z"/>
  </g>
  <text class="cls-8" transform="translate(427.22 385.61)"><tspan class="cls-3" x="0" y="0">deon</tspan><tspan class="cls-4" x="785.99" y="0">s</tspan><tspan class="cls-5" x="875.27" y="0">t</tspan><tspan class="cls-7" x="947" y="0">udio</tspan></text>
  <path class="cls-6" d="M1755.15,299.39c8.58-6.45,20.41-9.67,35.49-9.67s25.74,3.23,31.99,9.67c4.86,5.06,7.29,11.16,7.29,18.3,0,2.08-.2,4.22-.6,6.4l-5.36,30.51c-2.08,11.81-7.29,20.64-15.62,26.49s-20.24,8.78-35.71,8.78-26.24-2.98-32.29-8.93c-4.57-4.37-6.84-10.37-6.84-18.01,0-2.58.24-5.36.74-8.34l5.36-30.51c1.78-10.02,6.97-18.25,15.55-24.7ZM1750.32,356.83c-.2,1.19-.3,2.6-.3,4.24s.64,3.57,1.93,5.8,3.47,3.94,6.55,5.14c5.46,2.18,10.42,3.27,14.88,3.27s8.18-.25,11.16-.74c2.98-.49,6.15-1.34,9.52-2.53,3.37-1.19,6.27-3.1,8.7-5.73,2.43-2.63,3.99-5.78,4.69-9.45l5.66-32.14c.2-1.39.3-2.85.3-4.39s-.35-3.32-1.04-5.36c-.7-2.03-1.81-3.7-3.35-4.99-1.54-1.29-3.65-2.28-6.32-2.98-3.87-.99-7.14-1.49-9.82-1.49h-6.1c-1.39,0-2.8.03-4.24.08-1.44.05-3.47.22-6.1.52-2.63.3-4.89.87-6.77,1.71-1.89.84-3.82,1.91-5.8,3.2-3.97,2.68-6.6,7.24-7.89,13.69l-5.66,32.14ZM1787.67,314.72c5.46,0,9.28,1.02,11.46,3.05,2.18,2.03,3.27,4.39,3.27,7.07,0,.8-.1,1.64-.3,2.53l-.89,5.21c-.9,5.46-3.23,9.33-7,11.61l5.95,19.05h-15.03l-5.21-16.67h-4.76l-2.53,16.67h-14.43l8.48-48.51h20.98ZM1783.36,326.77h-5.06l-1.79,10.12h4.91c4.37,0,6.55-2.13,6.55-6.4,0-2.48-1.54-3.72-4.61-3.72Z"/>
</svg>